<?xml version="1.0" encoding="UTF-8"?>
<svg id="Layer_2" data-name="Layer 2" xmlns="http://www.w3.org/2000/svg" viewBox="0 0 512 512">
  <defs>
    <style>
      .cls-1 {
        fill: #fbfbfb;
        fill-rule: evenodd;
      }
    </style>
  </defs>
  <g id="Layer_1-2" data-name="Layer 1">
    <path class="cls-1" d="M256,0C114.69,0,0,114.69,0,256s114.69,256,256,256,256-114.69,256-256S397.31,0,256,0ZM129.79,416.77c11.01-23.04,78.08-45.57,126.21-45.57s115.46,22.53,126.21,45.57c-34.82,27.65-78.59,44.03-126.21,44.03s-91.39-16.38-126.21-44.03ZM256,320c37.38,0,126.21,15.1,162.82,59.65,26.11-34.3,41.98-77.06,41.98-123.65,0-112.9-91.9-204.8-204.8-204.8S51.2,143.1,51.2,256s15.87,89.34,41.98,123.65c36.61-44.54,125.44-59.65,162.82-59.65ZM256,102.4c-49.66,0-89.6,39.94-89.6,89.6s39.94,89.6,89.6,89.6,89.6-39.94,89.6-89.6-39.94-89.6-89.6-89.6ZM217.6,192c0,21.25,17.15,38.4,38.4,38.4s38.4-17.15,38.4-38.4-17.15-38.4-38.4-38.4-38.4,17.15-38.4,38.4Z"/>
  </g>
</svg>