<?xml version="1.0" encoding="UTF-8"?>
<svg id="Layer_1" xmlns="http://www.w3.org/2000/svg" version="1.1" viewBox="0 0 512 512">
  <!-- Generator: Adobe Illustrator 29.0.1, SVG Export Plug-In . SVG Version: 2.1.0 Build 192)  -->
  <defs>
    <style>
      .st0 {
        fill: #fbfbfb;
      }
    </style>
  </defs>
  <path class="st0" d="M255.39,10.63c-4.02.14-7.9,1.56-11.06,4.06L65.48,155.58c-22.7,17.89-35.98,45.22-35.98,74.12v240.21c0,17.16,14.3,31.46,31.46,31.46h125.83c17.16,0,31.46-14.3,31.46-31.46v-125.83c0-3.71,2.58-6.29,6.29-6.29h62.92c3.71,0,6.29,2.58,6.29,6.29v125.83c0,17.16,14.3,31.46,31.46,31.46h125.83c17.16,0,31.46-14.3,31.46-31.46v-240.21c0-28.9-13.28-56.23-35.98-74.12L267.67,14.69c-3.49-2.76-7.84-4.19-12.29-4.06h0ZM256,53.54l167.17,131.71c13.64,10.75,21.58,27.1,21.58,44.46v233.92h-113.25v-119.54c0-24.1-19.94-44.04-44.04-44.04h-62.92c-24.1,0-44.04,19.94-44.04,44.04v119.54h-113.25v-233.92c0-17.36,7.94-33.71,21.58-44.46L256,53.54Z"/>
</svg>