<svg width="650" height="102" viewBox="0 0 650 102" fill="none" xmlns="http://www.w3.org/2000/svg">
<path d="M93.992 28.552C103.037 28.552 110.12 31.2827 115.24 36.744C120.445 42.2053 123.048 49.672 123.048 59.144V101H97.96V62.472C97.96 58.632 96.8933 55.6453 94.76 53.512C92.6267 51.3787 89.7253 50.312 86.056 50.312C82.3867 50.312 79.4853 51.3787 77.352 53.512C75.2187 55.6453 74.152 58.632 74.152 62.472V101H49.064V62.472C49.064 58.632 47.9973 55.6453 45.864 53.512C43.816 51.3787 40.9573 50.312 37.288 50.312C33.5333 50.312 30.5893 51.3787 28.456 53.512C26.3227 55.6453 25.256 58.632 25.256 62.472V101H0.167999V29.192H25.256V38.664C27.4747 35.592 30.3333 33.16 33.832 31.368C37.416 29.4907 41.512 28.552 46.12 28.552C51.4107 28.552 56.104 29.704 60.2 32.008C64.3813 34.312 67.6667 37.5547 70.056 41.736C72.616 37.8107 75.9867 34.6533 80.168 32.264C84.3493 29.7893 88.9573 28.552 93.992 28.552Z" fill="#434343"/>
<path d="M170.201 101.896C163.033 101.896 156.59 100.403 150.873 97.416C145.241 94.4293 140.804 90.1627 137.561 84.616C134.318 79.0693 132.697 72.5413 132.697 65.032C132.697 57.608 134.318 51.1227 137.561 45.576C140.889 40.0293 145.369 35.7627 151.001 32.776C156.718 29.7893 163.161 28.296 170.329 28.296C177.497 28.296 183.897 29.7893 189.529 32.776C195.246 35.7627 199.726 40.0293 202.969 45.576C206.297 51.1227 207.961 57.608 207.961 65.032C207.961 72.456 206.297 78.984 202.969 84.616C199.726 90.1627 195.246 94.4293 189.529 97.416C183.812 100.403 177.369 101.896 170.201 101.896ZM170.201 80.136C173.7 80.136 176.601 78.856 178.905 76.296C181.294 73.6507 182.489 69.896 182.489 65.032C182.489 60.168 181.294 56.456 178.905 53.896C176.601 51.336 173.742 50.056 170.329 50.056C166.916 50.056 164.057 51.336 161.753 53.896C159.449 56.456 158.297 60.168 158.297 65.032C158.297 69.9813 159.406 73.736 161.625 76.296C163.844 78.856 166.702 80.136 170.201 80.136Z" fill="#434343"/>
<path d="M248.76 101.896C242.275 101.896 236.472 100.829 231.352 98.696C226.317 96.4773 222.307 93.4907 219.32 89.736C216.419 85.896 214.797 81.5867 214.456 76.808H238.776C239.117 79.112 240.184 80.904 241.976 82.184C243.768 83.464 245.987 84.104 248.632 84.104C250.68 84.104 252.301 83.6773 253.496 82.824C254.691 81.9707 255.288 80.8613 255.288 79.496C255.288 77.704 254.307 76.3813 252.344 75.528C250.381 74.6747 247.139 73.736 242.616 72.712C237.496 71.688 233.229 70.536 229.816 69.256C226.403 67.976 223.416 65.8853 220.856 62.984C218.381 60.0827 217.144 56.1573 217.144 51.208C217.144 46.9413 218.296 43.1013 220.6 39.688C222.904 36.1893 226.275 33.416 230.712 31.368C235.235 29.32 240.653 28.296 246.968 28.296C256.355 28.296 263.736 30.6 269.112 35.208C274.488 39.816 277.603 45.8747 278.456 53.384H255.8C255.373 51.08 254.349 49.3307 252.728 48.136C251.192 46.856 249.101 46.216 246.456 46.216C244.408 46.216 242.829 46.6 241.72 47.368C240.696 48.136 240.184 49.2027 240.184 50.568C240.184 52.2747 241.165 53.5973 243.128 54.536C245.091 55.3893 248.248 56.2853 252.6 57.224C257.805 58.3333 262.115 59.5707 265.528 60.936C269.027 62.3013 272.056 64.52 274.616 67.592C277.261 70.5787 278.584 74.6747 278.584 79.88C278.584 84.0613 277.347 87.816 274.872 91.144C272.483 94.472 269.027 97.1173 264.504 99.08C260.067 100.957 254.819 101.896 248.76 101.896Z" fill="#434343"/>
<path d="M359.526 64.264C359.526 66.2267 359.398 68.1893 359.142 70.152H311.654C311.91 74.0773 312.977 77.0213 314.854 78.984C316.817 80.8613 319.291 81.8 322.278 81.8C326.459 81.8 329.446 79.9227 331.238 76.168H357.99C356.881 81.1173 354.705 85.5547 351.462 89.48C348.305 93.32 344.294 96.3493 339.43 98.568C334.566 100.787 329.19 101.896 323.302 101.896C316.219 101.896 309.905 100.403 304.358 97.416C298.897 94.4293 294.587 90.1627 291.43 84.616C288.358 79.0693 286.822 72.5413 286.822 65.032C286.822 57.5227 288.358 51.0373 291.43 45.576C294.502 40.0293 298.769 35.7627 304.23 32.776C309.777 29.7893 316.134 28.296 323.302 28.296C330.385 28.296 336.657 29.7467 342.118 32.648C347.579 35.5493 351.846 39.7307 354.918 45.192C357.99 50.568 359.526 56.9253 359.526 64.264ZM333.926 57.992C333.926 54.92 332.902 52.5307 330.854 50.824C328.806 49.032 326.246 48.136 323.174 48.136C320.102 48.136 317.585 48.9893 315.622 50.696C313.659 52.3173 312.379 54.7493 311.782 57.992H333.926Z" fill="#434343"/>
<path d="M400.385 101.896C393.9 101.896 388.097 100.829 382.977 98.696C377.942 96.4773 373.932 93.4907 370.945 89.736C368.044 85.896 366.422 81.5867 366.081 76.808H390.401C390.742 79.112 391.809 80.904 393.601 82.184C395.393 83.464 397.612 84.104 400.257 84.104C402.305 84.104 403.926 83.6773 405.121 82.824C406.316 81.9707 406.913 80.8613 406.913 79.496C406.913 77.704 405.932 76.3813 403.969 75.528C402.006 74.6747 398.764 73.736 394.241 72.712C389.121 71.688 384.854 70.536 381.441 69.256C378.028 67.976 375.041 65.8853 372.481 62.984C370.006 60.0827 368.769 56.1573 368.769 51.208C368.769 46.9413 369.921 43.1013 372.225 39.688C374.529 36.1893 377.9 33.416 382.337 31.368C386.86 29.32 392.278 28.296 398.593 28.296C407.98 28.296 415.361 30.6 420.737 35.208C426.113 39.816 429.228 45.8747 430.081 53.384H407.425C406.998 51.08 405.974 49.3307 404.353 48.136C402.817 46.856 400.726 46.216 398.081 46.216C396.033 46.216 394.454 46.6 393.345 47.368C392.321 48.136 391.809 49.2027 391.809 50.568C391.809 52.2747 392.79 53.5973 394.753 54.536C396.716 55.3893 399.873 56.2853 404.225 57.224C409.43 58.3333 413.74 59.5707 417.153 60.936C420.652 62.3013 423.681 64.52 426.241 67.592C428.886 70.5787 430.209 74.6747 430.209 79.88C430.209 84.0613 428.972 87.816 426.497 91.144C424.108 94.472 420.652 97.1173 416.129 99.08C411.692 100.957 406.444 101.896 400.385 101.896Z" fill="#434343"/>
<path d="M481.952 50.056H470.688V101H445.472V50.056H437.664V29.192H445.472V28.552C445.472 19.336 448.16 12.296 453.536 7.432C458.997 2.48266 466.805 0.00799561 476.96 0.00799561C479.008 0.00799561 480.587 0.0506617 481.696 0.135994V21.512C481.013 21.4267 480.075 21.384 478.88 21.384C476.149 21.384 474.144 22.024 472.864 23.304C471.584 24.4987 470.859 26.4613 470.688 29.192H481.952V50.056Z" fill="#FBFBFB"/>
<path d="M486.822 65.032C486.822 57.608 488.145 51.1227 490.79 45.576C493.521 40.0293 497.233 35.7627 501.926 32.776C506.619 29.7893 511.825 28.296 517.542 28.296C522.15 28.296 526.246 29.2773 529.83 31.24C533.499 33.1173 536.358 35.72 538.406 39.048V6.28H563.622V101H538.406V91.016C536.443 94.344 533.67 96.9893 530.086 98.952C526.502 100.915 522.278 101.896 517.414 101.896C511.697 101.896 506.491 100.403 501.798 97.416C497.19 94.4293 493.521 90.1627 490.79 84.616C488.145 78.984 486.822 72.456 486.822 65.032ZM538.534 65.032C538.534 60.424 537.254 56.7973 534.694 54.152C532.219 51.5067 529.147 50.184 525.478 50.184C521.723 50.184 518.609 51.5067 516.134 54.152C513.659 56.712 512.422 60.3387 512.422 65.032C512.422 69.64 513.659 73.3093 516.134 76.04C518.609 78.6853 521.723 80.008 525.478 80.008C529.147 80.008 532.219 78.6853 534.694 76.04C537.254 73.3947 538.534 69.7253 538.534 65.032Z" fill="#FBFBFB"/>
<path d="M611.326 101.896C604.158 101.896 597.715 100.403 591.998 97.416C586.366 94.4293 581.929 90.1627 578.686 84.616C575.443 79.0693 573.822 72.5413 573.822 65.032C573.822 57.608 575.443 51.1227 578.686 45.576C582.014 40.0293 586.494 35.7627 592.126 32.776C597.843 29.7893 604.286 28.296 611.454 28.296C618.622 28.296 625.022 29.7893 630.654 32.776C636.371 35.7627 640.851 40.0293 644.094 45.576C647.422 51.1227 649.086 57.608 649.086 65.032C649.086 72.456 647.422 78.984 644.094 84.616C640.851 90.1627 636.371 94.4293 630.654 97.416C624.937 100.403 618.494 101.896 611.326 101.896ZM611.326 80.136C614.825 80.136 617.726 78.856 620.03 76.296C622.419 73.6507 623.614 69.896 623.614 65.032C623.614 60.168 622.419 56.456 620.03 53.896C617.726 51.336 614.867 50.056 611.454 50.056C608.041 50.056 605.182 51.336 602.878 53.896C600.574 56.456 599.422 60.168 599.422 65.032C599.422 69.9813 600.531 73.736 602.75 76.296C604.969 78.856 607.827 80.136 611.326 80.136Z" fill="#FBFBFB"/>
</svg>
