<?xml version="1.0" standalone="no"?>
<svg xmlns:xlink="http://www.w3.org/1999/xlink" width="512" height="512" viewBox="0 0 8.4666669 8.4666669" id="svg8" version="1.1" xmlns="http://www.w3.org/2000/svg" xmlns:cc="http://creativecommons.org/ns#" xmlns:dc="http://purl.org/dc/elements/1.1/" xmlns:inkscape="http://www.inkscape.org/namespaces/inkscape" xmlns:rdf="http://www.w3.org/1999/02/22-rdf-syntax-ns#" xmlns:sodipodi="http://sodipodi.sourceforge.net/DTD/sodipodi-0.dtd" xmlns:svg="http://www.w3.org/2000/svg">

<defs id="defs2" fill="#fff" style=""/>

<g id="layer1" transform="translate(0,-288.53332)" fill="#fff" style="">

<path d="M 5 1 A 1.0000999 1.0000999 0 0 0 4 2 L 4 30 A 1.0000999 1.0000999 0 0 0 5 31 L 27 31 A 1.0000999 1.0000999 0 0 0 28 30 L 28 9 A 1.0000999 1.0000999 0 0 0 27.707031 8.2929688 L 20.707031 1.2929688 A 1.0000999 1.0000999 0 0 0 20 1 L 5 1 z M 6 3 L 19.001953 3 L 19.001953 8.9980469 C 18.99982 9.5505004 19.445584 9.9999878 19.998047 10.001953 L 26 10.001953 L 26 29 L 6 29 L 6 3 z M 21.001953 4.4160156 L 24.587891 8.0019531 L 21.001953 8.0019531 L 21.001953 4.4160156 z " id="rect996" style="" transform="matrix(0.26458333,0,0,0.26458333,0,288.53332)" fill="#fff"/>

<path d="m 2.8847656,291.70898 a 0.26495432,0.26495432 0 0 0 0.025391,0.5293 h 2.6464844 a 0.26465,0.26465 0 1 0 0,-0.5293 H 2.9101562 a 0.26460981,0.26460981 0 0 0 -0.025391,0 z" id="path1009" style="" fill="#fff"/>

<path d="m 2.9101562,293.29492 a 0.26465,0.26465 0 1 0 0,0.5293 h 2.6464844 a 0.26465,0.26465 0 1 0 0,-0.5293 z" id="path1011" style="" fill="#fff"/>

<path d="m 2.9101562,294.88281 a 0.26465,0.26465 0 1 0 0,0.5293 h 2.6464844 a 0.26465,0.26465 0 1 0 0,-0.5293 z" id="path1013" style="" fill="#fff"/>

</g>

</svg>